<?xml version="1.0" encoding="UTF-8"?>
<svg width="360px" height="258px" viewBox="0 0 360 258" version="1.1" xmlns="http://www.w3.org/2000/svg" xmlns:xlink="http://www.w3.org/1999/xlink">
    <title>Combined Shape</title>
    <g id="Page-1" stroke="none" stroke-width="1" fill="none" fill-rule="evenodd">
        <g id="Desktop-Copy" transform="translate(-169.000000, -71.000000)" fill="#000000">
            <path d="M300.39697,71 L300.39697,115.270276 C271.72199,115.270276 244.624882,115.603609 219.105647,116.270276 C213.78918,116.409163 212.97997,118.851621 212.618458,122.757465 C212.502774,124.007335 212.442618,129.541873 212.437991,139.36108 L212.437991,141.905146 C212.442618,152.438464 212.502774,167.256451 212.618458,186.359107 L292.060278,186.359107 C292.840181,165.614094 316.278926,80.1996897 418.121127,77.3228454 C466.88365,78.8865454 503.849286,102.614063 529.018033,148.505399 L488.392974,148.38166 C488.392974,148.38166 473.790317,116.270276 419,111.243617 C368.541608,113.141314 337.460549,139.312532 325.756825,189.75727 C325.04116,196.308528 324.684345,200.871784 324.686381,203.447039 C324.695477,214.952953 325.781167,220.55012 325.781167,220.55012 C325.781167,220.55012 335.53291,254.787847 350.603101,266.658513 C378.49874,296.647169 419.492451,294.365734 419.492451,294.365734 C419.492451,294.365734 436.032537,295.404207 458.540581,284.045484 C464.971194,280.800264 474.921991,272.286009 488.392974,258.502719 L529.018033,258.502719 C507,300.425714 469.843528,324.739471 419.492451,328 C352.129043,327.125416 309.298226,291.274304 291,220.446666 L212.618458,220.446666 L212.618458,328 C202.731761,328.293343 194.641701,328.443507 188.348277,328.450491 L187.440114,328.450491 C181.321971,328.443507 177.000464,328.293343 174.475594,328 C171.830378,327.692675 170.00518,326.026008 169,323 L169,107 C172.341394,89.5167921 188.396611,71 199,71 L300.39697,71 Z M487.675712,177.754181 L452.515356,177.754181 C442.806202,164.257883 428.41672,158.301861 409.346911,159.886114 C402.818174,159.886114 375.388861,167.273945 372.755976,200.933107 C372.755976,237.141981 402.512315,244.8798 409.346911,245.995772 C427.178382,247.414168 440.92417,242.008754 450.584275,229.779532 L487.675712,229.779532 C473.793303,264.258697 447.683702,280.832187 409.346911,279.5 C392.306309,279.5 338.184159,263.221314 340.345205,198.421944 C345.5887,139.222185 395.766652,127.687958 409.346911,126.445665 C419.808239,124.805772 467.351931,124.805772 487.675712,177.754181 Z" id="Combined-Shape"></path>
        </g>
    </g>
</svg>