<?xml version="1.0" encoding="UTF-8"?>
<svg width="49px" height="77px" viewBox="0 0 49 77" version="1.1" xmlns="http://www.w3.org/2000/svg" xmlns:xlink="http://www.w3.org/1999/xlink">
    <title>MaternalHealth</title>
    <g id="Latest" stroke="none" stroke-width="1" fill="none" fill-rule="evenodd">
        <g id="Annotations---Landing-Page-2" transform="translate(-1124.000000, -1716.000000)" fill="#FF6DAB" fill-rule="nonzero">
            <g id="MaternalHealth" transform="translate(1124.836254, 1716.789689)">
                <path d="M42.8139047,55.3776178 C41.7980198,54.4234592 41.1006808,54.0700044 39.798379,53.4132654 C39.9579967,52.5768669 39.872551,51.586061 39.5622661,50.7692892 C39.0699871,49.4754379 38.3388224,48.6436079 37.0365206,48.2103112 C36.997735,48.1982332 36.463706,48.2223892 36.4264121,48.2103112 C35.9311496,43.6403139 33.5334645,39.1863047 29.5191528,36.6031315 C26.6534922,34.7582235 24.3744615,32.5612059 22.4854463,29.0212759 L24.3518887,29.5308625 C25.9227063,29.8811233 27.7870577,29.9704719 28.9297417,28.8487316 C31.0122312,26.8045372 32.1250801,24.3557313 32.332434,21.3634173 L33.2438961,21.0056078 C33.8405979,20.7715973 34.2911078,20.28244 34.4805607,19.6634447 C34.6700135,19.0459591 34.5730495,18.3831812 34.2150284,17.8487316 L33.3110251,16.5005295 C32.636752,15.4950396 32.3503351,14.2781853 32.502494,13.0718993 L32.8634987,10.2320695 C33.214061,7.47376587 32.3791541,5.53809712 30.6561775,3.3867109 C30.5920321,3.27649954 30.404071,3.07872298 30.398104,3.072684 C28.4931333,0.883554164 26.4166109,0 23.5330492,0 L16.5009178,0 C12.3359389,0 9.21071298,1.87519332 7.69807379,5.80354907 C7.25949793,6.94038684 6.66146686,9.03635166 6.53019245,10.2320695 C2.52781478,10.4962748 0.420855261,12.4245259 0.0301735814,16.5005295 C-0.360508098,20.5765332 3.09547073,23.8885983 7.33205387,23.8885983 C8.74922077,23.8885983 10.2534495,22.9788466 11.3946418,22.2994615 L11.4334274,23.2560153 C10.918772,26.9820652 10.6159458,30.7760537 10.5324076,34.5383375 C10.0326698,35.4215382 9.54039075,36.5484087 9.54039075,37.6369346 L9.54039075,49.4386091 C9.54039075,54.318104 10.5324076,59.0684881 13.8505718,63.8700029 C13.7879181,67.3137306 12.1877709,70.3932648 9.9710235,73.1636464 L9.10878933,74.2416041 C8.69408154,74.7594465 8.34251179,75.5188481 8.85418363,75.9385571 C9.07496331,76.1197265 9.06306774,76.030069 9.3271083,76.030069 C9.67468713,76.030069 10.0192825,75.8775847 10.2549797,75.5816748 L11.1172139,74.5037171 C11.1833411,74.4210184 11.2489753,74.3380356 11.3140941,74.2547667 C13.1748435,71.8753859 14.7155071,68.7252769 15.2098779,65.8341411 C15.4366246,66.0968367 15.6693383,66.3550031 15.9080191,66.6086402 L24.1427859,75.2229186 C24.5977711,75.7060369 25.2500587,76.2193697 25.7259285,75.7588975 C26.2032899,75.2984254 26.1809136,74.6492352 25.7259285,74.1661169 L17.5347038,65.4790458 C13.5770788,61.278936 11.3961335,55.7683677 11.3961335,49.9633993 L11.2748257,37.7752764 C11.2748257,35.7778841 12.8814454,34.1518891 14.8550368,34.1518891 C16.8286282,34.1518891 18.4352479,35.7778841 18.4352479,37.7752764 L18.5565557,53.6426472 C18.5565557,56.8840691 19.6649294,60.0575525 21.6758147,62.5788262 L32.1897013,75.7588975 C32.4253985,76.0548075 32.7699938,76.2088015 33.1190644,76.2088015 C33.3816132,76.2088015 33.462168,75.9400669 33.6829476,75.7588975 C34.1961112,75.3391885 33.7242411,74.6356475 33.3110251,74.1162953 L22.9160313,61.1873679 C21.2452661,59.0933519 20.3253385,56.3330123 20.3253385,53.6426472 L20.3253385,38.3202406 C20.3253385,38.0107429 20.0347774,36.5141027 19.9915165,36.216683 C22.2366072,37.0832765 25.2301902,38.161771 27.4916903,38.161771 C27.9690517,38.161771 28.447905,38.1421443 28.9297417,38.1044007 C32.1340307,40.2346505 34.2975506,44.0059467 34.7853543,47.6776458 C33.8485324,47.9146757 32.9848065,48.4476156 32.3537943,49.2341926 L31.4751508,50.3287575 C30.5189361,51.5214559 30.2131264,53.1097073 30.6561775,54.5786889 C31.1007204,56.0476705 32.2314704,57.1905473 33.6829476,57.6374317 L33.9067108,57.70688 C34.3512537,57.8442667 34.8017636,57.9091857 35.2448147,57.9091857 C36.8439757,57.9091857 38.3536314,57.0531605 39.183047,55.5796497 L39.3844338,55.2218402 C42.4186627,56.7814064 44.4907099,59.261917 45.3544359,62.4550271 C46.4792188,66.6113543 45.2470295,71.4063035 42.3589926,74.1162953 C41.8756641,74.5692187 41.6679212,75.129334 42.1154476,75.6184913 C42.3511448,75.8751479 42.4931774,75.9400669 42.8139047,75.9400669 C43.1047968,75.9400669 43.395689,75.832875 43.6254192,75.6184913 C47.195188,72.266858 48.4113761,67.1458107 47.0404536,62.0775977 C46.375131,59.6197333 44.6472711,57.1017463 42.8139047,55.3776178 Z M9.41955863,6.55370949 C10.572685,3.55988572 13.3682331,1.62590274 16.542687,1.62590274 L23.5748183,1.62590274 C25.6006211,1.62590274 27.5369186,2.44267463 28.9645278,3.87844186 C28.087376,5.89244131 26.1704713,7.03380831 23.8120073,6.88887282 C22.6842408,6.82093431 21.6534383,7.5667482 21.3595627,8.66433261 C20.9120363,10.3386395 20.0154917,11.9314202 18.6221929,13.5332593 C17.0886692,12.4386944 15.7416147,12.76027 14.8808723,13.2252714 C13.4443126,14.0012802 12.60893,15.6076486 12.7521385,17.3166796 C12.8252344,18.1908218 13.0191625,18.8656777 13.3428733,19.3714421 C13.1012091,19.6749008 12.767056,19.9209892 12.3180379,20.1338632 L10.3250537,16.8396002 C8.46334391,13.7612308 8.12471561,9.91591098 9.41955863,6.55370949 Z M6.8462819,11.7349825 C7.11304691,13.9465875 7.19298009,14.5140447 8.28746964,17.0393142 L10.6723889,20.6252967 C9.76838562,21.3514839 8.08592999,22.3094053 6.8462819,22.3094053 C3.92691809,22.3094053 1.55055297,19.904382 1.55055297,16.9498116 C1.55055297,14.1869788 3.40171692,11.7349825 6.8462819,11.7349825 Z M12.26881,32.7825044 C12.4060514,29.9200285 12.670092,27.0515135 13.0609317,24.2222519 L13.1280606,23.7376238 C13.1892226,23.2952686 13.1922061,22.8483842 13.1414864,22.4090485 C13.745647,22.1463529 14.4064943,21.7583485 14.9703776,21.1514312 C15.8594634,21.8111896 16.9141339,22.193155 18.153782,22.3033664 C18.1895841,22.3063859 18.2253862,22.3078956 18.2596966,22.3078956 C18.871316,22.3078956 19.3919383,21.8338358 19.4471332,21.205782 C19.5053117,20.5414943 19.0189997,19.9557133 18.3626276,19.8968333 C17.0767351,19.7820927 16.1816824,19.2672697 15.4730989,18.2361141 C15.435805,18.1787438 15.3970194,18.124393 15.3552503,18.0700422 C15.3492833,18.0624935 15.192649,17.8586779 15.1299953,17.1113543 C15.0673416,16.3655404 15.4104452,15.6770968 16.0041636,15.3555212 C16.3592012,15.1637836 16.70678,15.1169815 17.2557457,15.5125346 C18.244779,16.2251341 19.600784,16.0620817 20.409315,15.1350985 C22.0547203,13.2464078 23.1198331,11.335071 23.6717823,9.29842539 C26.5419182,9.47204603 29.0286732,8.24462358 30.489101,6.06153272 C31.1051957,7.38406909 31.3468599,8.86814814 31.1588988,10.3461882 L30.7978942,13.186018 C30.5696557,14.9765753 30.9962976,16.7852494 31.9972649,18.278387 L32.6909308,19.3140718 L32.0345588,19.5722382 C31.2290113,19.8892846 30.6740786,20.6622739 30.6173919,21.5439648 C30.4652329,23.9504979 29.5865894,25.9101465 27.92925,27.5376513 C27.3623833,28.0932374 26.555344,28.3212088 25.7706811,28.1460784 L20.008033,26.8627954 C19.3650867,26.7193697 18.7281075,27.13153 18.5863908,27.7822299 C18.4446741,28.4329299 18.8519231,29.0775909 19.4948694,29.2210167 L20.676339,29.4837122 C21.8249901,31.9430864 23.4539862,34.0718264 25.6856511,35.9997704 C23.5106728,35.7249969 21.3416616,34.9882415 19.1278977,33.772897 C19.0950791,33.75478 19.0607688,33.7381728 19.0264584,33.7230754 C17.9583621,32.7326829 16.53672,32.122746 14.9763446,32.122746 C14.0022288,32.122746 13.0818162,32.3612857 12.26881,32.7825044 L12.26881,32.7825044 Z M38.6282965,52.9237716 C38.593401,53.6887704 38.593401,53.8887608 38.1773596,54.6660809 C37.7613182,55.4434009 37.0375612,56.5640553 35.9223955,56.7066391 C34.8072298,56.8492229 34.5783971,56.6683944 33.8772724,56.4525009 C33.1761477,56.2366074 32.0824556,55.1232735 31.867643,54.4152032 C31.6528303,53.707133 31.4722755,52.8556257 32.1981251,51.520981 C32.9239747,50.1863362 32.8233162,50.3658074 33.3498052,49.8790041 C33.8762942,49.3922009 34.795648,48.9653087 35.4896246,49.1145866 C36.1836013,49.2638646 36.3121379,49.2629675 36.9312161,49.4698025 C37.5502942,49.6766376 38.103481,50.6242426 38.3376865,51.2387087 C38.571892,51.8546845 38.6631921,52.1587728 38.6282965,52.9237716 Z" id="Shape"></path>
            </g>
        </g>
    </g>
</svg>